<svg width="400" height="400" xmlns="http://www.w3.org/2000/svg" xmlns:svg="http://www.w3.org/2000/svg">
    <g class="layer">
        <rect fill="#959595" height="400" id="svg_1" rx="50" ry="50" transform="matrix(1 0 0 1 0 0)" width="400"/>
        <path d="m84.86,157.33c-0.24,-2.65 -0.39,-5.31 -0.39,-8c0,-46.76 36.45,-84.66 81.4,-84.66c34.89,0 64.57,22.88 76.15,54.99c7.67,-8.75 18.61,-14.34 30.89,-14.34c23.16,0 41.93,19.52 41.93,43.6c0,2.84 -0.3,5.63 -0.8,8.31c30.89,5.29 54.53,33 54.53,66.62c0,37.42 -29.16,67.73 -65.12,67.73l-206.75,0c-35.97,0 -65.12,-30.32 -65.12,-67.73c-0.01,-33.2 22.99,-60.7 53.3,-66.5l-0.01,-0.01l-0.01,-0.01z" fill="white" id="cloud" stroke="green" stroke-width="8" transform="matrix(1 0 0 1 0 0)"/>
        <path d="m225.04,186.81l0,-13.51l-0.01,0c-0.01,-16.67 -12,-30.17 -26.81,-30.17s-26.81,13.51 -26.81,30.18l0,0l0,13.5l-9.69,0l0,57.97l73,0l0,-57.97l-9.69,0l0.01,0zm-45.14,-13.5c0,0 0,0 0,0c0,-11.38 8.23,-20.65 18.34,-20.65c10.12,0 18.34,9.26 18.34,20.65c0,0 0,0 0,0l0,13.51l-36.68,0l0,-13.5l0,-0.01z" fill="green" id="lock"/>
        <path d="m187.31,215.62l11.5,-11.5l11.5,11.5l-11.5,11.5l-11.5,-11.5z" fill="white" id="lock hole"/>
    </g>
</svg>